<?xml version="1.0" encoding="UTF-8"?>
<svg width="512px" height="512px" viewBox="0 0 512 512" version="1.1" xmlns="http://www.w3.org/2000/svg" xmlns:xlink="http://www.w3.org/1999/xlink">
    <title>Background</title>
    <g id="Page-1" stroke="none" stroke-width="1" fill="none" fill-rule="evenodd">
        <g id="iOS-App-Icon-Template" transform="translate(-1676.000000, -325.000000)"></g>
        <g id="Icon">
            <rect id="Background" fill="#2F373D" x="0" y="0" width="512" height="512"></rect>
            <path d="M438.991151,108.281989 C417.085431,99.2140068 371.461361,16.8394042 275.71953,50.1105426 C179.9777,83.3816811 89.5729043,15.5842493 78.512778,159.211566 C67.4526517,302.838882 16.5290237,310.576027 78.512778,392.327967 C140.496532,474.079907 273.557646,464.649033 308.233345,455.067828 C342.909044,445.486622 380.316797,411.642139 432.848248,411.642139" id="Path-2" stroke="#45A3E1" stroke-width="5"></path>
            <path d="M426.743048,127.312991 C376.933419,66.8012938 326.677223,46.6307281 275.974462,66.8012938 C199.92032,97.0571424 143.432042,69.985167 125.793199,93.2751613 C108.154356,116.565156 118.373892,116.565156 109.322022,173.070938 C100.270151,229.57672 63.0043819,272.281623 77.8011522,319.50257 C92.5979225,366.723518 153.360971,444.237332 205.674435,444.237332 C257.987898,444.237332 331.275196,411.633311 351.386472,407.41658 C371.497748,403.19985 406.322106,376.367278 453.324591,387.214899" id="Path-3" stroke="#DDB808" stroke-width="5"></path>
            <path d="M438.991151,153.013095 C428.887545,166.879513 411.028598,171.306697 385.41431,166.294649 C346.992877,158.776576 386.407724,132.808341 332.955076,132.808341 C279.502428,132.808341 232.848055,140.198285 210.169635,140.198285 C187.491216,140.198285 186.416767,101.724868 175.029045,157.350295 C163.641324,212.975721 145.702697,219.042613 139.967511,251.691443 C134.232326,284.340273 139.967511,292.443584 139.967511,317.342222 C139.967511,342.24086 114.615547,353.571645 159.73881,359.043111 C204.862073,364.514578 252.891577,389.237332 272.226527,389.237332 C291.561478,389.237332 272.106767,360.632607 360.075031,344.51602 C418.72054,333.771629 449.803727,329.829352 453.324591,332.689188" id="Path" stroke="#A363FC" stroke-width="5"></path>
            <path d="M442.321714,131.618737 C442.321714,131.618737 417.908982,146.188101 403.475836,131.618737 C389.04269,117.049374 368.301725,65.9651385 329.278774,70.5241655 C290.255824,75.0831926 316.14528,95.8190889 236.352032,99.9923799 C156.558785,104.165671 146.850629,70.8101087 129.496636,163.420366 C112.142643,256.030623 93.964764,243.433058 93.964764,282.469124 C93.964764,321.505191 98.7092654,384.878559 153.294622,404.72109 C207.879979,424.56362 191.943567,404.72109 227.959425,404.72109 C263.975283,404.72109 248.16583,428.965218 285.85906,416.843154 C323.55229,404.72109 339.42541,373.212719 396.663525,365.585425 C434.822269,360.500562 458.145832,360.500562 466.634215,365.585425" id="Path-4" stroke="#16E6B4" stroke-width="5"></path>
            <path d="M339.832269,158.313637 C238.954826,147.609294 188.516104,153.834039 188.516104,176.987871 C188.516104,211.718619 154.764807,221.929594 160.051301,270.783611 C165.337794,319.637628 140.483916,338.448133 188.516104,338.448133 C220.537563,338.448133 245.671666,343.377866 263.918415,353.237332" id="Path-6" stroke="#FF5697" stroke-width="5"></path>
            <path d="M398.535839,144.172976 C373.501929,116.882546 352.60885,103.237332 335.856601,103.237332 C310.728227,103.237332 224.220877,124.884971 204.820319,118.348623 C185.419761,111.812275 169.086485,99.763693 163.728744,118.348623 C158.371003,136.933553 140.504086,216.711668 131.839015,227.100481 C123.173943,237.489293 101.42797,270.511333 112.300957,301.334258 C123.173943,332.157183 114.458862,356.967053 131.839015,366.521165 C149.219167,376.075276 165.275908,369.028477 214.545603,386.184785 C263.815298,403.341092 258.924504,425.499183 306.697419,398.897917 C354.470334,372.296651 375.627911,354.131227 398.535839,354.131227 C421.443767,354.131227 461.085051,341.74129 473.800935,354.131227" id="Path-5" stroke="#E1528D" stroke-width="5"></path>
        </g>
    </g>
</svg>